<?xml version="1.0" encoding="utf-8"?>
<!-- Generator: Adobe Illustrator 24.0.0, SVG Export Plug-In . SVG Version: 6.00 Build 0)  -->
<svg version="1.1" id="Layer_1" xmlns="http://www.w3.org/2000/svg" xmlns:xlink="http://www.w3.org/1999/xlink" x="0px" y="0px"
	 viewBox="0 0 864 864" style="enable-background:new 0 0 864 864;" xml:space="preserve">
<style type="text/css">
	.st0{fill:#121617;}
	.st1{fill:#F04D3C;}
	.st2{fill:#505356;}
	.st3{fill:#FFFFFF;}
	.st4{fill:#18171C;}
</style>
<g>
	<path class="st0" d="M600.2,296.8c-46.5-46-108-70.8-173.3-69.9c-31.1,0.4-61.6,6.8-90.4,18.9c-28.4,12-54,28.9-75.9,50.5
		C214.2,341.6,188.7,403,188.7,469c0,64.9,25.2,125.7,71.1,171.1c45.5,45.1,105.9,69.9,170.1,69.9c0.8,0,1.6,0,2.4,0
		c64.9-0.6,125.5-26.2,170.4-72.2c44.7-45.6,69.9-107.1,69.2-168.8C672,403.8,646.5,342.6,600.2,296.8z"/>
	<g>
		<path class="st1" d="M207.7,459.1c26.4-10.3,53-20,80.3-27.9c38.5-11.1,77.8-17.5,117.9-18.7c2.4-0.1,3.6-0.8,4.6-2.9
			c14.7-31.5,44.9-49.4,79.6-47.2c33.6,2.1,63.3,26.7,71.7,59.5c0.6,2.4,1.6,3.5,4.1,3.9c13.7,2.7,27.1,6.8,40.2,11.8
			c16.4,6.3,32.2,13.7,48.4,20.3c3,1.2,3.1,1.1,2.9-2.1c-0.6-9.5-1.6-19-3.4-28.4c-9.8-51.2-33.7-94.5-72.9-128.9
			c-51.6-45.3-112.1-63.4-180.2-55.5c-30.8,3.6-59.6,13.9-86.3,29.7c-8.9,5.3-17.6,11-25.5,17.8c1.2,0.2,1.9-0.7,2.7-1.2
			c12.3-7.1,25.3-11.3,39.6-11c17,0.4,30.5,9.8,34.8,24.4c2.5,8.4,2,16.9-0.5,25.2c-5.9,19.5-18.6,33.9-35.5,44.7
			c-13.2,8.5-27.6,13.3-43.6,12.5c-18.2-1-31.7-12.3-34.4-29c-1.5-9.4,0.3-18.4,3.9-27.2c2.1-5.2,4.9-10,8.1-14.5
			c0.5-0.7,1.4-1.3,1.2-2.4l0,0l0,0c-1.8,2-3.7,3.9-5.5,5.9c-33.7,38.6-52.6,83.4-56.4,134.6c-0.2,2.6-0.6,5.2-0.2,8.1
			C205,460.1,206.4,459.6,207.7,459.1z"/>
	</g>
	<g>
		<path class="st2" d="M659.1,467.1c-0.1-1.7-0.9-2.6-2.5-3.2c-8.7-3.6-17.4-7.2-26.1-11c-22.2-9.8-44.7-18.6-68.6-23.2
			c-2.4-0.4-3.5-1.4-4-3.9c-4.1-17.8-13.3-32.4-27.9-43.4c-16.3-12.4-34.8-17.4-55.3-15c-10.9,1.3-21.1,4.8-30.4,10.6
			c-14.4,8.9-24.8,21.2-31,37c-0.5,1.2-1,2-2.5,2c-3.2-0.1-6.5,0.3-9.7,0.4c-8,0.3-16,1-24,1.7c-12.8,1.1-25.5,2.9-38.1,5.1
			c-16.3,2.8-32.3,6.8-48.3,11c-12.8,3.4-25.4,7.6-37.9,11.9c-11.1,3.8-22,7.9-33,12.1c-5.2,1.6-10.1,4-15.2,5.8
			c-2,0.7-2.7,1.8-2.7,3.9c0.2,9.2-0.4,18.5,1.1,27.6c0.8,4.7,1.4,9.4,2.6,14.1c0.4,1.4,0.8,2.1,2.5,1.4c7-3.1,14.2-5.5,21.4-8
			c7.5-2.6,14.9-5.1,22.4-7.6c1.5,0.1,2.6-0.8,4-1.2c7.5-2.1,15-4.6,22.6-6.4c6.1-1.4,12-3.7,18.1-5.1c16.3-3.6,32.7-6.9,49.2-9.2
			c12.1-1.7,24.1-3.1,36.3-4.2c9.2-0.8,18.4-1.1,27.6-1.7c1.8-0.1,2.9,0.2,3.7,2.3c5.9,14.2,15,25.9,27.8,34.5
			c14.9,10,31.2,14.3,49.1,12.8c12.5-1.1,24-5,34.5-11.7c9.7-6.2,17.6-14.3,23.6-24.2c0.7-1.2,1.3-2.1,3.2-1.7
			c19,3.9,37.7,8.8,56.2,14.7c15.1,4.8,29.9,10.1,44.6,16c1.4,0.5,2.5,1,3-1.2C659.1,496,659.5,481.6,659.1,467.1z M485.6,496.9
			c-31.3-0.1-55.6-25.5-55.6-55.9c0-30.6,25-56.2,56-55.7c30.4-0.4,56,24.8,55.7,56.2C541.4,472,517,496.9,485.6,496.9z"/>
	</g>
	<g>
		<path class="st3" d="M649.8,514.9c-4.2-1.3-8.3-3.1-12.5-4.7c-27-10.1-54.4-18.6-82.7-24.5c-2-0.4-3,0-4.1,1.7
			c-4.2,6.5-9.3,12.2-15.4,17c-22.5,18-47.8,23.3-75.3,14.8c-22.9-7-39.1-22.1-49.3-43.7c-0.6-1.3-1.2-2.3-3-2.2
			c-5.7,0.4-11.5,0.5-17.2,0.9c-14.8,1.1-29.6,2.6-44.3,4.7c-22,3.2-43.7,7.7-65.2,13.5c-1.2,0.3-2.3,0.6-3.5,0.9
			c-22.6,6.1-44.8,13.6-66.7,21.9c-2.2,0.8-2.9,1.7-2.3,4.2c11.7,47.9,36.2,88,73.6,120.2c19.9,17.2,42.2,30.4,66.7,39.8
			c19.1,7.3,38.9,12,59.2,14c7.3,0.7,14.8,1.3,22.1,1.1c5.3-0.1,10.7-0.3,16-0.6c12.5-0.9,24.7-2.7,36.8-5.6
			c20.4-4.9,39.8-12.4,58.2-22.7c15.8-8.8,30.3-19.4,43.5-31.7c11.6-10.9,22.3-22.7,31.3-35.8c2.8-4.1,6.1-8.1,7.9-12.9
			c0.8-1,1.6-2,2.2-3.1c7-11.4,12.5-23.5,17.1-36c3.4-9,6-18.3,8.3-27.6C652.1,516.7,652,515.6,649.8,514.9z"/>
		<path class="st3" d="M264.2,314.5c-3.2,4.6-6,9.4-8.1,14.5c-3.6,8.7-5.4,17.7-3.9,27.2c2.7,16.8,16.2,28.1,34.4,29
			c16,0.8,30.4-3.9,43.6-12.5c16.9-10.9,29.6-25.2,35.5-44.7c2.5-8.3,3-16.8,0.5-25.2c-4.4-14.6-17.9-24-34.8-24.4
			c-14.3-0.4-27.4,3.9-39.6,11c-0.8,0.5-1.5,1.4-2.7,1.2c-5.8,4.6-11.8,8.9-16.8,14.3c-2.3,2.4-4.5,4.8-6.8,7.3l0,0
			C265.6,313.2,264.7,313.8,264.2,314.5z"/>
		<path class="st3" d="M486.2,389.8c-28-0.3-51.2,22.5-51.5,50.7c-0.3,27.6,22.3,51.1,49.6,51.4c28.5,0.4,52.1-21.8,52.5-49.3
			C537.3,413.3,515.1,390.2,486.2,389.8z M485.8,480.3c-21.9-0.1-39.4-17.8-39.2-39.8c0.2-21.5,17.9-39,39.4-38.9
			c21.8,0.1,39.4,17.8,39.2,39.6C525,462.9,507.4,480.4,485.8,480.3z"/>
		<path class="st3" d="M487.2,404.8c-19.6-1-36.5,14.7-37.5,35c-1,19.1,14.8,36.4,34.1,37.3c20.8,1,37.4-14.3,38.4-35.5
			C523,422.6,507,405.8,487.2,404.8z"/>
	</g>
	<g>
		<path class="st4" d="M427,234.9c-122,1.6-230.3,99.3-230.3,234.1c0,130.7,106.3,234.2,235.6,233c137.3-1.3,233-115.6,231.7-232.9
			C664.2,337.8,556.8,233.2,427,234.9z M203.6,452.6c3.8-51.2,22.7-96,56.4-134.6c1.8-2,3.7-3.9,5.5-5.9l0,0
			c2.3-2.4,4.6-4.8,6.8-7.3c5.1-5.4,11-9.7,16.8-14.3c7.9-6.8,16.5-12.5,25.5-17.8c26.7-15.9,55.5-26.1,86.3-29.7
			c68.1-7.9,128.5,10.2,180.2,55.5c39.2,34.4,63.1,77.7,72.9,128.9c1.8,9.4,2.7,18.9,3.4,28.4c0.2,3.2,0.1,3.3-2.9,2.1
			c-16.2-6.6-32.1-14.1-48.4-20.3c-13.1-5-26.4-9.1-40.2-11.8c-2.4-0.5-3.5-1.5-4.1-3.9c-8.4-32.8-38.1-57.4-71.7-59.5
			c-34.7-2.2-64.9,15.7-79.6,47.2c-1,2.2-2.2,2.9-4.6,2.9c-40.1,1.2-79.4,7.6-117.9,18.7c-27.3,7.9-53.9,17.6-80.3,27.9
			c-1.4,0.5-2.8,1-4.4,1.6C202.9,457.9,203.4,455.3,203.6,452.6z M651.7,518.6c-2.3,9.4-4.9,18.6-8.3,27.6
			c-4.7,12.5-10.1,24.6-17.1,36c-0.7,1.1-1.5,2.1-2.2,3.1c-1.8,4.8-5.1,8.7-7.9,12.9c-9,13.2-19.7,25-31.3,35.8
			c-13.2,12.3-27.8,22.9-43.5,31.7c-18.3,10.3-37.7,17.8-58.2,22.7c-12.1,2.9-24.4,4.7-36.8,5.6c-5.3,0.4-10.7,0.5-16,0.6
			c-7.4,0.2-14.8-0.4-22.1-1.1c-20.4-2-40.1-6.6-59.2-14c-24.5-9.4-46.8-22.6-66.7-39.8c-37.3-32.2-61.8-72.3-73.6-120.2
			c-0.6-2.5,0.1-3.4,2.3-4.2c21.9-8.3,44.1-15.8,66.7-21.9c1.1-0.3,2.3-0.6,3.5-0.9c21.5-5.8,43.2-10.3,65.2-13.5
			c14.7-2.2,29.5-3.7,44.3-4.7c5.7-0.4,11.5-0.5,17.2-0.9c1.8-0.1,2.4,0.8,3,2.2c10.2,21.6,26.4,36.7,49.3,43.7
			c27.6,8.5,52.8,3.2,75.3-14.8c6-4.8,11.2-10.5,15.4-17c1.1-1.6,2.1-2.1,4.1-1.7c28.2,5.9,55.7,14.4,82.7,24.5
			c4.2,1.6,8.2,3.3,12.5,4.7C652,515.6,652.1,516.7,651.7,518.6z M652.7,511.3c-14.7-5.8-29.6-11.2-44.6-16
			c-18.5-5.9-37.2-10.9-56.2-14.7c-1.9-0.4-2.5,0.5-3.2,1.7c-6,9.9-13.9,18-23.6,24.2c-10.5,6.7-22,10.7-34.5,11.7
			c-17.9,1.5-34.3-2.8-49.1-12.8c-12.8-8.6-21.9-20.3-27.8-34.5c-0.8-2-1.9-2.4-3.7-2.3c-9.2,0.6-18.5,0.9-27.6,1.7
			c-12.1,1.1-24.2,2.4-36.3,4.2c-16.5,2.4-32.9,5.6-49.2,9.2c-6.1,1.4-12,3.6-18.1,5.1c-7.6,1.8-15.1,4.3-22.6,6.4
			c-1.3,0.4-2.5,1.3-4,1.2c-7.5,2.5-15,5-22.4,7.6c-7.2,2.5-14.5,4.9-21.4,8c-1.7,0.8-2.1,0-2.5-1.4c-1.2-4.6-1.8-9.4-2.6-14.1
			c-1.6-9.2-1-18.4-1.1-27.6c0-2.1,0.6-3.2,2.7-3.9c5.1-1.8,10-4.3,15.2-5.8c10.9-4.2,21.9-8.3,33-12.1c12.5-4.3,25.1-8.6,37.9-11.9
			c16-4.2,32-8.2,48.3-11c12.6-2.1,25.3-4,38.1-5.1c8-0.7,16-1.4,24-1.7c3.2-0.1,6.5-0.5,9.7-0.4c1.5,0,2-0.8,2.5-2
			c6.2-15.8,16.6-28.1,31-37c9.3-5.8,19.5-9.3,30.4-10.6c20.4-2.4,38.9,2.6,55.3,15c14.5,11,23.8,25.6,27.9,43.4
			c0.6,2.5,1.7,3.4,4,3.9c23.9,4.5,46.5,13.3,68.6,23.2c8.6,3.8,17.3,7.4,26.1,11c1.6,0.7,2.4,1.6,2.5,3.2c0.5,14.5,0.1,28.8-3.3,43
			C655.2,512.3,654.1,511.8,652.7,511.3z"/>
		<path class="st4" d="M486,385.2c-31-0.5-56,25.1-56,55.7c0,30.5,24.3,55.9,55.6,55.9c31.4,0.1,55.8-24.8,56.1-55.4
			C542.1,410.1,516.4,384.8,486,385.2z M484.4,492c-27.3-0.4-50-23.9-49.6-51.4c0.3-28.3,23.5-51.1,51.5-50.7
			c28.9,0.3,51.1,23.5,50.7,52.9C536.5,470.2,512.9,492.4,484.4,492z"/>
		<path class="st4" d="M486,401.6c-21.5-0.1-39.2,17.4-39.4,38.9c-0.2,22,17.3,39.8,39.2,39.8c21.6,0.1,39.2-17.4,39.4-39.1
			C525.4,419.5,507.8,401.7,486,401.6z M522.1,441.6c-1,21.1-17.6,36.5-38.4,35.5c-19.2-0.9-35-18.2-34.1-37.3
			c1.1-20.3,17.9-36,37.5-35C507,405.8,523,422.6,522.1,441.6z"/>
	</g>
</g>
</svg>
